<svg xmlns="http://www.w3.org/2000/svg" id="Layer_1" data-name="Layer 1" width="500" height="160" viewBox="0 0 500 160"><defs><style>.cls-1{fill:#0e5192;}.cls-2{fill:#b8173a;}</style></defs><path class="cls-1" d="M246.31,121.1c-.94-3-1.56-4.89-1.56-14.51V88c0-11-3.43-15-11.24-15h-5.92V121.1H210.42V3h25.9c17.79,0,25.43,8.94,25.43,27.16v9.28c0,12.14-3.58,20.07-11.23,23.95,8.58,3.88,11.39,12.82,11.39,25.13v18.22c0,5.74.16,9.95,1.87,14.34ZM227.59,19.89V56.16h6.7c6.4,0,10.3-3,10.3-12.49V32c0-8.43-2.65-12.14-8.74-12.14Z"></path><path class="cls-1" d="M290.62,31.36c0-18.89,9.2-29.69,26.05-29.69s26.06,10.8,26.06,29.69v61.4c0,18.89-9.21,29.69-26.06,29.69s-26.05-10.8-26.05-29.69Zm17.16,62.58c0,8.44,3.43,11.64,8.89,11.64s8.9-3.2,8.9-11.64V30.18c0-8.44-3.43-11.64-8.9-11.64s-8.89,3.2-8.89,11.64Z"></path><path class="cls-1" d="M372.69,3h17.16V104.23h28.24V121.1h-45.4Z"></path><path class="cls-1" d="M500,121.1H482.68l-3-21.42H458.65l-3,21.42H439.93L457.41,3h25.12ZM460.84,83.65h16.54l-8.27-59.71Z"></path><path class="cls-2" d="M261,132.29a37.88,37.88,0,0,1,6.25-.49c3.22,0,5.57.75,7.07,2.1a6.78,6.78,0,0,1,2.21,5.27,7.44,7.44,0,0,1-1.95,5.39c-1.72,1.83-4.52,2.77-7.7,2.77a11,11,0,0,1-2.62-.23v10.1H261Zm3.26,12.16a11.27,11.27,0,0,0,2.69.26c3.93,0,6.32-1.91,6.32-5.39,0-3.33-2.35-4.94-6-4.94a14.22,14.22,0,0,0-3.06.26Z"></path><path class="cls-2" d="M282.24,153.24a11.51,11.51,0,0,0,5.84,1.64c3.32,0,5.27-1.76,5.27-4.3,0-2.36-1.35-3.7-4.75-5-4.12-1.46-6.66-3.59-6.66-7.15,0-3.92,3.25-6.84,8.16-6.84a11.51,11.51,0,0,1,5.57,1.23l-.9,2.66a10,10,0,0,0-4.79-1.2c-3.44,0-4.75,2.06-4.75,3.78,0,2.36,1.54,3.52,5,4.86,4.26,1.65,6.43,3.71,6.43,7.41,0,3.89-2.88,7.26-8.83,7.26a13,13,0,0,1-6.43-1.61Z"></path><path class="cls-2" d="M302.71,128.32a1.9,1.9,0,0,1,1.87-1.87,1.86,1.86,0,0,1,1.79,1.87,1.83,1.83,0,1,1-3.66,0Zm3.44,3.67V157.2h-3.26V132Z"></path><path class="cls-2" d="M313.6,132h3.25v12.16H317c.68-1,1.35-1.87,2-2.7l7.71-9.46h4l-9.13,10.7,9.84,14.51h-3.85l-8.31-12.38-2.39,2.77v9.61H313.6Z"></path><path class="cls-2" d="M356.55,144.33c0,8.68-5.28,13.28-11.71,13.28-6.66,0-11.34-5.16-11.34-12.79,0-8,5-13.24,11.71-13.24C352.1,131.58,356.55,136.85,356.55,144.33Zm-19.57.41c0,5.39,2.92,10.22,8,10.22s8.08-4.75,8.08-10.48c0-5-2.62-10.25-8.05-10.25S337,139.21,337,144.74Z"></path><path class="cls-2" d="M362.54,132h3.25v22.48h10.78v2.73h-14Z"></path><path class="cls-2" d="M402.05,144.33c0,8.68-5.28,13.28-11.71,13.28-6.66,0-11.34-5.16-11.34-12.79,0-8,5-13.24,11.71-13.24C397.6,131.58,402.05,136.85,402.05,144.33Zm-19.57.41c0,5.39,2.92,10.22,8,10.22s8.07-4.75,8.07-10.48c0-5-2.61-10.25-8-10.25S382.48,139.21,382.48,144.74Z"></path><path class="cls-2" d="M413.2,132h3.26v16.87c0,6.7-3.29,8.75-7.63,8.75a10.7,10.7,0,0,1-3.48-.59l.48-2.66a7.85,7.85,0,0,0,2.73.49c2.92,0,4.64-1.31,4.64-6.25Z"></path><path class="cls-2" d="M423.46,128.32a1.9,1.9,0,0,1,1.87-1.87,1.86,1.86,0,0,1,1.79,1.87,1.83,1.83,0,1,1-3.66,0ZM426.9,132V157.2h-3.26V132Z"></path><ellipse class="cls-1" cx="53.5" cy="23.35" rx="20.16" ry="22.45"></ellipse><path class="cls-1" d="M56.56,52.86C24.85,52.86,0,80.72,0,111.27A88.71,88.71,0,0,0,12.67,156.1l17-18s-4.87-5.26-4.87-18c0-17.31,15.24-33.78,31.1-33.78,12.15,0,20.8,7,25.33,12.15l1.19,1.34c7.4-7.81,14.2-15,19.4-20.51-4.62-4.91-8-8.49-9.37-10C84.31,60.26,70.56,52.86,56.56,52.86Z"></path><path class="cls-1" d="M121.27,99.77l-4.38,4.9A23.85,23.85,0,0,1,122,119.61a23.59,23.59,0,0,1-6.53,16.5c4.89,5.26,9,9.6,11.3,11.75,8.24,7.83,17.31,11.24,27.4,11.24h23.4S146.1,126,121.27,99.77Z"></path><path class="cls-2" d="M130,42.64a9.26,9.26,0,0,0,5.12-1.57,18.46,18.46,0,0,0,24.7,0,9.26,9.26,0,0,0,5.12,1.57c5.48,0,9.93-4.88,10.07-10.95a5.35,5.35,0,0,1-3.84,1.7h-.06a4.29,4.29,0,0,1-3.95-5.25,25,25,0,0,0,.47-4.79c0-12.4-9-22.45-20.16-22.45s-20.16,10-20.16,22.45a24.24,24.24,0,0,0,.48,4.79,4.29,4.29,0,0,1-4,5.25h-.06a5.33,5.33,0,0,1-3.83-1.7C120,37.76,124.48,42.64,130,42.64Z"></path><path class="cls-2" d="M147.18,52.86c-14,0-27.75,7.4-35.94,16.39s-85.1,89.85-85.1,89.85h23.4c10.09,0,19.16-3.41,27.39-11.24,2.28-2.15,6.41-6.49,11.31-11.75a23.55,23.55,0,0,1-6.53-16.5c0-12.41,9-22.46,20.16-22.46a19.25,19.25,0,0,1,15,7.52c2.68-3,4.67-5.23,5.56-6.24,4.54-5.15,13.19-12.15,25.34-12.15,15.86,0,31.1,16.47,31.1,33.78,0,12.77-4.87,18-4.87,18l17,18a88.71,88.71,0,0,0,12.67-44.83C203.74,80.72,178.89,52.86,147.18,52.86Z"></path></svg>